<?xml version="1.0" encoding="UTF-8" standalone="no"?>
<svg width="100%" height="100%" viewBox="0 0 770 417" version="1.1" xmlns="http://www.w3.org/2000/svg" xmlns:xlink="http://www.w3.org/1999/xlink" xml:space="preserve" style="fill-rule:evenodd;clip-rule:evenodd;stroke-linejoin:round;stroke-miterlimit:2;">
    <g transform="matrix(2.08333,0,0,2.08333,-33037.1,-10218)">
        <g transform="matrix(1.21692,0,0,0.995025,4692.34,4841.07)">
            <g transform="matrix(0.82175,0,0,1.005,2253.26,-8384.76)">
                <g transform="matrix(1,0,0,1,8740.78,8579.83)">
                    <path d="M22.443,-31.674C16.681,-34.314 13.677,-35.909 13.738,-40.552C13.776,-43.47 16.283,-45.233 18.689,-45.252C20.763,-45.285 22.535,-44.453 23.547,-42.951C25.039,-40.737 27.209,-41.273 28.16,-41.823C29.103,-42.357 29.745,-43.298 29.9,-44.371C30.114,-45.735 29.256,-46.94 28.84,-47.55C26.392,-51.018 22.983,-52.451 18.739,-52.375L18.627,-52.375C12.083,-52.425 6.723,-47.191 6.615,-40.649C6.491,-31.153 13.689,-27.854 19.474,-25.202C25.421,-22.476 28.518,-20.819 28.37,-15.78C28.29,-13.013 27.373,-10.751 25.727,-9.239C23.945,-7.604 21.272,-6.797 18.203,-6.982C13.164,-7.183 9.153,-11.426 9.42,-16.462C9.42,-19.216 10.5,-20.759 8.565,-22.073C7.721,-22.647 6.675,-22.842 5.685,-22.596C4.693,-22.349 3.855,-21.688 3.383,-20.782C2.615,-19.339 2.343,-17.576 2.305,-16.746C2.096,-12.258 3.764,-7.884 6.855,-4.624C9.718,-1.598 13.697,0.121 17.863,0.13L18.006,0.13C24.703,0.13 27.767,-1.447 30.541,-3.991C33.64,-6.833 35.351,-10.838 35.489,-15.575C35.782,-25.559 28.386,-28.949 22.443,-31.674L22.443,-31.674Z" style="fill:rgb(55,37,0);fill-rule:nonzero;stroke:rgb(55,37,0);stroke-width:2.4px;"/>
                </g>
                <g transform="matrix(1,0,0,1,-1898.14,191.956)">
                    <g transform="matrix(0.451253,0,0,0.451253,3612.27,6330.52)">
                        <g transform="matrix(163.763,0,0,163.763,15165,4398.22)">
                            <path d="M0.389,-0.114C0.389,-0.114 0.174,-0.114 0.174,-0.114C0.169,-0.114 0.165,-0.116 0.162,-0.119C0.159,-0.122 0.158,-0.126 0.158,-0.131L0.158,-0.241C0.158,-0.25 0.165,-0.257 0.174,-0.257L0.295,-0.257C0.322,-0.257 0.343,-0.278 0.343,-0.305C0.343,-0.332 0.322,-0.353 0.295,-0.353L0.174,-0.353C0.165,-0.353 0.158,-0.36 0.158,-0.369L0.158,-0.612C0.158,-0.62 0.165,-0.628 0.174,-0.628L0.389,-0.628C0.416,-0.628 0.437,-0.649 0.437,-0.676C0.437,-0.702 0.416,-0.724 0.389,-0.724L0.109,-0.724C0.083,-0.724 0.061,-0.702 0.061,-0.676L0.061,-0.066C0.061,-0.04 0.083,-0.018 0.109,-0.018L0.389,-0.018C0.416,-0.018 0.437,-0.04 0.437,-0.066C0.437,-0.093 0.416,-0.114 0.389,-0.114Z" style="fill:rgb(55,37,0);fill-rule:nonzero;stroke:rgb(55,37,0);stroke-width:0.03px;"/>
                        </g>
                        <g transform="matrix(163.763,0,0,163.763,15244.8,4396)">
                            <path d="M0.496,-0.057C0.478,-0.153 0.411,-0.243 0.326,-0.351C0.319,-0.362 0.319,-0.363 0.325,-0.371C0.398,-0.464 0.466,-0.555 0.483,-0.65C0.486,-0.664 0.482,-0.678 0.474,-0.689C0.465,-0.7 0.452,-0.707 0.438,-0.707C0.414,-0.708 0.394,-0.691 0.389,-0.668C0.376,-0.601 0.324,-0.527 0.269,-0.456C0.266,-0.452 0.261,-0.45 0.256,-0.45C0.251,-0.45 0.246,-0.452 0.243,-0.456C0.199,-0.515 0.148,-0.593 0.138,-0.665C0.135,-0.689 0.114,-0.707 0.09,-0.707C0.076,-0.707 0.063,-0.701 0.054,-0.691C0.044,-0.68 0.04,-0.666 0.042,-0.652C0.056,-0.553 0.12,-0.458 0.187,-0.371C0.191,-0.365 0.191,-0.357 0.187,-0.352C0.118,-0.264 0.044,-0.162 0.029,-0.055C0.028,-0.041 0.032,-0.027 0.041,-0.016C0.05,-0.006 0.063,0 0.077,0C0.101,0.001 0.121,-0.017 0.125,-0.041C0.135,-0.116 0.19,-0.198 0.243,-0.267C0.246,-0.271 0.251,-0.273 0.256,-0.273C0.261,-0.273 0.266,-0.271 0.269,-0.267C0.328,-0.191 0.388,-0.111 0.401,-0.038C0.406,-0.016 0.426,0.001 0.449,0.001C0.449,0.001 0.45,0.001 0.45,0.001C0.464,0 0.478,-0.007 0.486,-0.018C0.495,-0.029 0.499,-0.043 0.496,-0.057Z" style="fill:rgb(55,37,0);fill-rule:nonzero;stroke:rgb(55,37,0);stroke-width:0.03px;"/>
                        </g>
                        <g transform="matrix(163.763,0,0,163.763,15330.6,4396)">
                            <path d="M0.502,-0.269C0.495,-0.28 0.483,-0.288 0.469,-0.29L0.464,-0.29C0.44,-0.293 0.418,-0.277 0.414,-0.253C0.401,-0.183 0.368,-0.099 0.282,-0.099C0.252,-0.098 0.223,-0.11 0.202,-0.132C0.151,-0.185 0.133,-0.282 0.134,-0.356C0.135,-0.429 0.149,-0.494 0.174,-0.54C0.201,-0.591 0.238,-0.615 0.288,-0.615C0.349,-0.615 0.385,-0.585 0.401,-0.521C0.407,-0.499 0.429,-0.484 0.452,-0.487L0.458,-0.488C0.47,-0.49 0.482,-0.497 0.489,-0.507C0.496,-0.518 0.498,-0.531 0.495,-0.543C0.469,-0.65 0.393,-0.712 0.288,-0.712C0.108,-0.712 0.041,-0.529 0.038,-0.358C0.036,-0.237 0.072,-0.127 0.134,-0.064C0.172,-0.024 0.226,-0.001 0.282,-0.002C0.398,-0.002 0.481,-0.087 0.508,-0.235C0.511,-0.247 0.509,-0.259 0.502,-0.269Z" style="fill:rgb(55,37,0);fill-rule:nonzero;stroke:rgb(55,37,0);stroke-width:0.03px;"/>
                        </g>
                        <g transform="matrix(163.763,0,0,163.763,15421.8,4398.22)">
                            <path d="M0.547,-0.724C0.547,-0.724 0.089,-0.724 0.089,-0.724C0.063,-0.724 0.041,-0.703 0.041,-0.676C0.041,-0.649 0.063,-0.628 0.089,-0.628L0.311,-0.628C0.32,-0.628 0.328,-0.621 0.328,-0.612L0.328,-0.064C0.328,-0.037 0.349,-0.016 0.376,-0.016C0.402,-0.016 0.424,-0.037 0.424,-0.064L0.424,-0.612C0.424,-0.621 0.431,-0.628 0.44,-0.628L0.547,-0.628C0.573,-0.628 0.595,-0.649 0.595,-0.676C0.595,-0.703 0.573,-0.724 0.547,-0.724ZM0.114,-0.541C0.087,-0.541 0.066,-0.52 0.066,-0.493L0.066,-0.067C0.066,-0.04 0.087,-0.019 0.114,-0.019C0.141,-0.019 0.162,-0.04 0.162,-0.067L0.162,-0.493C0.162,-0.52 0.141,-0.541 0.114,-0.541Z" style="fill:rgb(55,37,0);fill-rule:nonzero;stroke:rgb(55,37,0);stroke-width:0.03px;"/>
                        </g>
                        <g transform="matrix(163.763,0,0,163.763,15522,4398.22)">
                            <path d="M0.389,-0.114C0.389,-0.114 0.174,-0.114 0.174,-0.114C0.169,-0.114 0.165,-0.116 0.162,-0.119C0.159,-0.122 0.158,-0.126 0.158,-0.131L0.158,-0.241C0.158,-0.25 0.165,-0.257 0.174,-0.257L0.295,-0.257C0.322,-0.257 0.343,-0.278 0.343,-0.305C0.343,-0.332 0.322,-0.353 0.295,-0.353L0.174,-0.353C0.165,-0.353 0.158,-0.36 0.158,-0.369L0.158,-0.612C0.158,-0.62 0.165,-0.628 0.174,-0.628L0.389,-0.628C0.416,-0.628 0.437,-0.649 0.437,-0.676C0.437,-0.702 0.416,-0.724 0.389,-0.724L0.109,-0.724C0.083,-0.724 0.061,-0.702 0.061,-0.676L0.061,-0.066C0.061,-0.04 0.083,-0.018 0.109,-0.018L0.389,-0.018C0.416,-0.018 0.437,-0.04 0.437,-0.066C0.437,-0.093 0.416,-0.114 0.389,-0.114Z" style="fill:rgb(55,37,0);fill-rule:nonzero;stroke:rgb(55,37,0);stroke-width:0.03px;"/>
                        </g>
                        <g transform="matrix(163.763,0,0,163.763,15599.3,4396)">
                            <path d="M0.429,-0.617C0.331,-0.716 0.184,-0.718 0.105,-0.711L0.09,-0.708L0.09,-0.707C0.073,-0.7 0.062,-0.683 0.062,-0.665L0.062,-0.048C0.062,-0.029 0.073,-0.013 0.09,-0.006L0.09,-0.004L0.106,-0.002C0.123,-0.001 0.14,-0 0.156,-0C0.36,-0 0.494,-0.116 0.514,-0.31C0.528,-0.443 0.499,-0.546 0.429,-0.617ZM0.418,-0.32C0.404,-0.181 0.316,-0.101 0.172,-0.097C0.168,-0.096 0.164,-0.098 0.161,-0.102C0.159,-0.105 0.158,-0.108 0.158,-0.111L0.158,-0.603C0.158,-0.606 0.159,-0.609 0.161,-0.611C0.163,-0.615 0.167,-0.617 0.172,-0.617C0.228,-0.616 0.307,-0.603 0.361,-0.549C0.41,-0.5 0.429,-0.423 0.418,-0.32L0.418,-0.32Z" style="fill:rgb(55,37,0);fill-rule:nonzero;stroke:rgb(55,37,0);stroke-width:0.03px;"/>
                        </g>
                        <g transform="matrix(163.763,0,0,163.763,15165,4559.76)">
                            <path d="M0.502,-0.269C0.495,-0.28 0.483,-0.288 0.469,-0.29L0.464,-0.29C0.44,-0.293 0.418,-0.277 0.414,-0.253C0.401,-0.183 0.368,-0.099 0.282,-0.099C0.252,-0.098 0.223,-0.11 0.202,-0.132C0.151,-0.185 0.133,-0.282 0.134,-0.356C0.135,-0.429 0.149,-0.494 0.174,-0.54C0.201,-0.591 0.238,-0.615 0.288,-0.615C0.349,-0.615 0.385,-0.585 0.401,-0.521C0.407,-0.499 0.429,-0.484 0.452,-0.487L0.458,-0.488C0.47,-0.49 0.482,-0.497 0.489,-0.507C0.496,-0.518 0.498,-0.531 0.495,-0.543C0.469,-0.65 0.393,-0.712 0.288,-0.712C0.108,-0.712 0.041,-0.529 0.038,-0.358C0.036,-0.237 0.072,-0.127 0.134,-0.064C0.172,-0.024 0.226,-0.001 0.282,-0.002C0.398,-0.002 0.481,-0.087 0.508,-0.235C0.511,-0.247 0.509,-0.259 0.502,-0.269Z" style="fill:rgb(55,37,0);fill-rule:nonzero;stroke:rgb(55,37,0);stroke-width:0.03px;"/>
                        </g>
                        <g transform="matrix(163.763,0,0,163.763,15256.2,4559.76)">
                            <path d="M0.46,-0.705C0.434,-0.705 0.412,-0.684 0.412,-0.657L0.412,-0.282C0.412,-0.215 0.395,-0.163 0.363,-0.131C0.339,-0.107 0.306,-0.094 0.273,-0.095L0.272,-0.095C0.195,-0.096 0.149,-0.168 0.149,-0.288L0.149,-0.657C0.149,-0.684 0.128,-0.705 0.101,-0.705C0.075,-0.705 0.053,-0.684 0.053,-0.657L0.053,-0.288C0.053,-0.076 0.166,0.001 0.271,0.001L0.273,0.001C0.332,0.002 0.389,-0.021 0.431,-0.062C0.482,-0.113 0.509,-0.189 0.509,-0.282L0.509,-0.657C0.509,-0.684 0.487,-0.705 0.46,-0.705Z" style="fill:rgb(55,37,0);fill-rule:nonzero;stroke:rgb(55,37,0);stroke-width:0.03px;"/>
                        </g>
                        <g transform="matrix(163.763,0,0,163.763,15350.7,4559.76)">
                            <path d="M0.604,-0.202C0.631,-0.202 0.652,-0.224 0.652,-0.251L0.652,-0.664C0.652,-0.69 0.631,-0.712 0.604,-0.712C0.578,-0.712 0.556,-0.69 0.556,-0.664L0.556,-0.251C0.556,-0.238 0.561,-0.225 0.57,-0.216C0.579,-0.207 0.591,-0.202 0.604,-0.202ZM0.66,-0.068C0.648,-0.078 0.633,-0.081 0.619,-0.078C0.604,-0.075 0.589,-0.074 0.574,-0.075C0.495,-0.08 0.425,-0.132 0.364,-0.23C0.417,-0.28 0.444,-0.357 0.444,-0.458C0.444,-0.573 0.389,-0.636 0.342,-0.668C0.259,-0.727 0.144,-0.728 0.094,-0.709L0.091,-0.708C0.073,-0.702 0.062,-0.686 0.062,-0.667L0.062,-0.058C0.062,-0.031 0.084,-0.01 0.11,-0.01C0.137,-0.01 0.158,-0.031 0.158,-0.058L0.158,-0.152C0.158,-0.158 0.164,-0.163 0.17,-0.163C0.205,-0.163 0.24,-0.168 0.274,-0.178C0.279,-0.179 0.284,-0.177 0.286,-0.173C0.362,-0.051 0.457,0.014 0.568,0.021C0.574,0.022 0.58,0.022 0.586,0.022C0.604,0.022 0.622,0.02 0.64,0.016C0.662,0.011 0.678,-0.008 0.678,-0.031C0.678,-0.046 0.671,-0.059 0.66,-0.068ZM0.296,-0.298C0.267,-0.272 0.226,-0.26 0.169,-0.26C0.163,-0.26 0.158,-0.265 0.158,-0.271L0.158,-0.613C0.158,-0.616 0.16,-0.619 0.162,-0.621C0.164,-0.623 0.167,-0.624 0.17,-0.624C0.191,-0.624 0.243,-0.62 0.287,-0.59C0.327,-0.561 0.348,-0.517 0.348,-0.458C0.348,-0.383 0.33,-0.329 0.296,-0.298L0.296,-0.298Z" style="fill:rgb(55,37,0);fill-rule:nonzero;stroke:rgb(55,37,0);stroke-width:0.03px;"/>
                        </g>
                        <g transform="matrix(163.763,0,0,163.763,15470.7,4559.76)">
                            <path d="M0.3,-0.708C0.153,-0.708 0.034,-0.548 0.034,-0.353C0.034,-0.157 0.153,0.002 0.3,0.002C0.446,0.002 0.566,-0.157 0.566,-0.353C0.566,-0.548 0.446,-0.708 0.3,-0.708ZM0.3,-0.094C0.206,-0.094 0.13,-0.21 0.13,-0.353C0.13,-0.495 0.206,-0.611 0.3,-0.611C0.393,-0.611 0.469,-0.495 0.469,-0.353C0.469,-0.21 0.393,-0.094 0.3,-0.094Z" style="fill:rgb(55,37,0);fill-rule:nonzero;stroke:rgb(55,37,0);stroke-width:0.03px;"/>
                        </g>
                    </g>
                    <g transform="matrix(0.341693,0,0,0.341693,4550.41,7215.41)">
                        <g transform="matrix(4.85808e-17,0.793385,-0.793385,4.85808e-17,19316.8,229.455)">
                            <g>
                                <g transform="matrix(0.992248,-1.22304e-32,-1.22304e-32,0.992248,3422,2265.97)">
                                    <circle cx="460.5" cy="436.5" r="64.5" style="fill:rgb(55,37,0);"/>
                                </g>
                                <g transform="matrix(0.992248,-1.22304e-32,-1.22304e-32,0.992248,3423.02,2447.81)">
                                    <circle cx="460.5" cy="436.5" r="64.5" style="fill:rgb(55,37,0);"/>
                                </g>
                                <g transform="matrix(1.20665,-2.79377e-32,-1.48731e-32,1.20665,3128.11,1708.99)">
                                    <path d="M696,778.493C696,772.371 698.712,766.564 703.407,762.635C708.101,758.707 714.295,757.06 720.32,758.138C784.903,769.643 834,826.133 834,894C834,961.867 784.903,1018.36 720.32,1029.86C714.295,1030.94 708.101,1029.29 703.407,1025.36C698.713,1021.44 696.001,1015.63 696.001,1009.51C696,957.677 696,830.323 696,778.493Z" style="fill:rgb(55,37,0);"/>
                                </g>
                            </g>
                        </g>
                        <g transform="matrix(1,0,0,1,1251.46,180.589)">
                            <path d="M15831.5,2853.95C15820.7,2837.72 15802.2,2827.02 15781.2,2827.02C15747.9,2827.02 15720.8,2854.09 15720.8,2887.44C15720.8,2910.14 15702.4,2928.57 15679.7,2928.57C15657,2928.57 15638.5,2910.14 15638.5,2887.44C15638.5,2808.69 15702.5,2744.76 15781.2,2744.76C15860,2744.76 15923.9,2808.69 15923.9,2887.44C15923.9,2948.41 15885.6,3000.51 15831.7,3020.91C15826.1,3023.04 15822.4,3028.42 15822.4,3034.43C15822.3,3034.43 15822.3,3034.43 15822.3,3034.43C15822.3,3038.4 15820.8,3042.21 15818,3045.01C15815.2,3047.82 15811.3,3049.4 15807.4,3049.4L15756.1,3049.4C15747.2,3049.4 15740.1,3042.23 15740.1,3033.4C15740.1,3033.4 15740.1,3012.22 15740.1,2989.2C15740.1,2966.37 15758.6,2947.87 15781.4,2947.87C15781.4,2947.87 15781.4,2947.87 15781.4,2947.87C15814.7,2947.87 15841.7,2920.84 15841.7,2887.55C15841.7,2875.12 15838,2863.56 15831.5,2853.95Z" style="fill:rgb(55,37,0);"/>
                        </g>
                        <path d="M17137.4,2948.82C17148.4,2933.97 17166.1,2924.35 17186,2924.35C17219.3,2924.35 17246.5,2951.46 17246.5,2984.85C17246.5,2988.22 17246.2,2991.53 17245.6,2994.76L17216.5,3212.87C17216.5,3217.11 17214.8,3221.18 17211.8,3224.18C17208.8,3227.18 17204.7,3228.87 17200.5,3228.87L17150.2,3228.87C17146,3228.87 17141.9,3227.18 17138.9,3224.18C17135.9,3221.18 17134.2,3217.11 17134.2,3212.87L17134.2,3189.92C17169.1,3160.81 17191.3,3116.99 17191.3,3068.03C17191.3,3020.55 17170.5,2977.91 17137.4,2948.82Z" style="fill:rgb(55,37,0);"/>
                    </g>
                </g>
            </g>
        </g>
    </g>
</svg>
